<?xml version="1.0" encoding="UTF-8" standalone="no"?>
<!DOCTYPE svg PUBLIC "-//W3C//DTD SVG 1.1//EN"
 "http://www.w3.org/Graphics/SVG/1.1/DTD/svg11.dtd">
<!-- Generated by graphviz version 2.49.1 (20210923.0004)
 -->
<!-- Title: ビジネスルール関連図 Pages: 1 -->
<svg width="573pt" height="288pt"
 viewBox="0.00 0.00 573.00 288.00" xmlns="http://www.w3.org/2000/svg" xmlns:xlink="http://www.w3.org/1999/xlink">
<g id="graph0" class="graph" transform="scale(1 1) rotate(0) translate(4 284)">
<title>ビジネスルール関連図</title>
<polygon fill="white" stroke="transparent" points="-4,4 -4,-284 569,-284 569,4 -4,4"/>
<text text-anchor="middle" x="282.5" y="-7.8" font-family="Times,serif" font-size="14.00">ビジネスルール関連図</text>
<g id="clust1" class="cluster">
<title>cluster_me.irof.pkgd</title>
<polygon fill="lemonchiffon" stroke="#eedd82" stroke-width="2" points="27,-197 27,-272 127,-272 127,-197 27,-197"/>
<text text-anchor="middle" x="77" y="-256.8" font-family="Times,serif" font-size="14.00">me.irof.pkgd</text>
</g>
<g id="clust2" class="cluster">
<title>cluster_me.irof.pkgd.controller.fuga</title>
<polygon fill="lemonchiffon" stroke="#eedd82" stroke-width="2" points="138,-197 138,-272 312,-272 312,-197 138,-197"/>
<text text-anchor="middle" x="225" y="-256.8" font-family="Times,serif" font-size="14.00">me.irof.pkgd.controller.fuga</text>
</g>
<g id="clust3" class="cluster">
<title>cluster_me.irof.pkgd.controller.hoge</title>
<polygon fill="lemonchiffon" stroke="#eedd82" stroke-width="2" points="321,-197 321,-272 498,-272 498,-197 321,-197"/>
<text text-anchor="middle" x="409.5" y="-256.8" font-family="Times,serif" font-size="14.00">me.irof.pkgd.controller.hoge</text>
</g>
<g id="clust4" class="cluster">
<title>cluster_me.irof.pkgd.repository.fuga</title>
<polygon fill="lemonchiffon" stroke="#eedd82" stroke-width="2" points="8,-31 8,-106 185,-106 185,-31 8,-31"/>
<text text-anchor="middle" x="96.5" y="-90.8" font-family="Times,serif" font-size="14.00">me.irof.pkgd.repository.fuga</text>
</g>
<g id="clust5" class="cluster">
<title>cluster_me.irof.pkgd.repository.hoge</title>
<polygon fill="lemonchiffon" stroke="#eedd82" stroke-width="2" points="378,-31 378,-106 557,-106 557,-31 378,-31"/>
<text text-anchor="middle" x="467.5" y="-90.8" font-family="Times,serif" font-size="14.00">me.irof.pkgd.repository.hoge</text>
</g>
<g id="clust6" class="cluster">
<title>cluster_me.irof.pkgd.repository.piyo</title>
<polygon fill="lemonchiffon" stroke="#eedd82" stroke-width="2" points="193,-31 193,-106 370,-106 370,-31 193,-31"/>
<text text-anchor="middle" x="281.5" y="-90.8" font-family="Times,serif" font-size="14.00">me.irof.pkgd.repository.piyo</text>
</g>
<g id="clust7" class="cluster">
<title>cluster_me.irof.pkgd.service.fuga</title>
<polygon fill="lemonchiffon" stroke="#eedd82" stroke-width="2" points="97,-114 97,-189 199,-189 199,-114 97,-114"/>
<text text-anchor="middle" x="148" y="-173.8" font-family="Times,serif" font-size="14.00">fuga</text>
</g>
<g id="clust8" class="cluster">
<title>cluster_me.irof.pkgd.service.hoge</title>
<polygon fill="lemonchiffon" stroke="#eedd82" stroke-width="2" points="348,-114 348,-189 454,-189 454,-114 348,-114"/>
<text text-anchor="middle" x="401" y="-173.8" font-family="Times,serif" font-size="14.00">hoge</text>
</g>
<g id="clust9" class="cluster">
<title>cluster_me.irof.pkgd.service.piyo</title>
<polygon fill="lemonchiffon" stroke="#eedd82" stroke-width="2" points="231,-114 231,-189 331,-189 331,-114 231,-114"/>
<text text-anchor="middle" x="281" y="-173.8" font-family="Times,serif" font-size="14.00">piyo</text>
</g>
<!-- me.irof.pkgd.Application -->
<g id="node1" class="node">
<title>me.irof.pkgd.Application</title>
<polygon fill="#eedd82" stroke="red" points="118.5,-241 35.5,-241 35.5,-205 118.5,-205 118.5,-241"/>
<text text-anchor="middle" x="77" y="-219.3" font-family="Times,serif" font-size="14.00">Application</text>
</g>
<!-- me.irof.pkgd.controller.fuga.FugaController -->
<g id="node2" class="node">
<title>me.irof.pkgd.controller.fuga.FugaController</title>
<polygon fill="#eedd82" stroke="black" points="276,-241 174,-241 174,-205 276,-205 276,-241"/>
<text text-anchor="middle" x="225" y="-219.3" font-family="Times,serif" font-size="14.00">FugaController</text>
</g>
<!-- me.irof.pkgd.service.fuga.FugaService -->
<g id="node7" class="node">
<title>me.irof.pkgd.service.fuga.FugaService</title>
<polygon fill="#eedd82" stroke="black" points="191,-158 105,-158 105,-122 191,-122 191,-158"/>
<text text-anchor="middle" x="148" y="-136.3" font-family="Times,serif" font-size="14.00">FugaService</text>
</g>
<!-- me.irof.pkgd.controller.fuga.FugaController&#45;&gt;me.irof.pkgd.service.fuga.FugaService -->
<g id="edge3" class="edge">
<title>me.irof.pkgd.controller.fuga.FugaController&#45;&gt;me.irof.pkgd.service.fuga.FugaService</title>
<path fill="none" stroke="black" d="M208.67,-204.82C197.85,-193.44 183.48,-178.33 171.45,-165.66"/>
<polygon fill="black" stroke="black" points="173.73,-162.99 164.31,-158.15 168.66,-167.81 173.73,-162.99"/>
</g>
<!-- me.irof.pkgd.service.piyo.PiyoService -->
<g id="node9" class="node">
<title>me.irof.pkgd.service.piyo.PiyoService</title>
<polygon fill="#eedd82" stroke="black" points="323,-158 239,-158 239,-122 323,-122 323,-158"/>
<text text-anchor="middle" x="281" y="-136.3" font-family="Times,serif" font-size="14.00">PiyoService</text>
</g>
<!-- me.irof.pkgd.controller.fuga.FugaController&#45;&gt;me.irof.pkgd.service.piyo.PiyoService -->
<g id="edge4" class="edge">
<title>me.irof.pkgd.controller.fuga.FugaController&#45;&gt;me.irof.pkgd.service.piyo.PiyoService</title>
<path fill="none" stroke="black" d="M236.88,-204.82C244.6,-193.65 254.8,-178.9 263.45,-166.38"/>
<polygon fill="black" stroke="black" points="266.33,-168.37 269.14,-158.15 260.58,-164.39 266.33,-168.37"/>
</g>
<!-- me.irof.pkgd.controller.hoge.HogeController -->
<g id="node3" class="node">
<title>me.irof.pkgd.controller.hoge.HogeController</title>
<polygon fill="#eedd82" stroke="black" points="434,-241 330,-241 330,-205 434,-205 434,-241"/>
<text text-anchor="middle" x="382" y="-219.3" font-family="Times,serif" font-size="14.00">HogeController</text>
</g>
<!-- me.irof.pkgd.service.hoge.HogeService -->
<g id="node8" class="node">
<title>me.irof.pkgd.service.hoge.HogeService</title>
<polygon fill="#eedd82" stroke="black" points="445.5,-158 356.5,-158 356.5,-122 445.5,-122 445.5,-158"/>
<text text-anchor="middle" x="401" y="-136.3" font-family="Times,serif" font-size="14.00">HogeService</text>
</g>
<!-- me.irof.pkgd.controller.hoge.HogeController&#45;&gt;me.irof.pkgd.service.hoge.HogeService -->
<g id="edge1" class="edge">
<title>me.irof.pkgd.controller.hoge.HogeController&#45;&gt;me.irof.pkgd.service.hoge.HogeService</title>
<path fill="none" stroke="black" d="M386.03,-204.82C388.52,-194.19 391.78,-180.31 394.62,-168.2"/>
<polygon fill="black" stroke="black" points="398.1,-168.69 396.98,-158.15 391.29,-167.09 398.1,-168.69"/>
</g>
<!-- me.irof.pkgd.controller.hoge.HogeController&#45;&gt;me.irof.pkgd.service.piyo.PiyoService -->
<g id="edge2" class="edge">
<title>me.irof.pkgd.controller.hoge.HogeController&#45;&gt;me.irof.pkgd.service.piyo.PiyoService</title>
<path fill="none" stroke="black" d="M360.58,-204.82C345.98,-193.12 326.47,-177.47 310.42,-164.6"/>
<polygon fill="black" stroke="black" points="312.38,-161.68 302.39,-158.15 308,-167.14 312.38,-161.68"/>
</g>
<!-- me.irof.pkgd.repository.fuga.FugaRepository -->
<g id="node4" class="node">
<title>me.irof.pkgd.repository.fuga.FugaRepository</title>
<polygon fill="#eedd82" stroke="black" points="177,-75 71,-75 71,-39 177,-39 177,-75"/>
<text text-anchor="middle" x="124" y="-53.3" font-family="Times,serif" font-size="14.00">FugaRepository</text>
</g>
<!-- me.irof.pkgd.repository.hoge.HogeRepository -->
<g id="node5" class="node">
<title>me.irof.pkgd.repository.hoge.HogeRepository</title>
<polygon fill="#eedd82" stroke="black" points="494,-75 386,-75 386,-39 494,-39 494,-75"/>
<text text-anchor="middle" x="440" y="-53.3" font-family="Times,serif" font-size="14.00">HogeRepository</text>
</g>
<!-- me.irof.pkgd.repository.piyo.PiyoRepository -->
<g id="node6" class="node">
<title>me.irof.pkgd.repository.piyo.PiyoRepository</title>
<polygon fill="#eedd82" stroke="black" points="333,-75 229,-75 229,-39 333,-39 333,-75"/>
<text text-anchor="middle" x="281" y="-53.3" font-family="Times,serif" font-size="14.00">PiyoRepository</text>
</g>
<!-- me.irof.pkgd.service.fuga.FugaService&#45;&gt;me.irof.pkgd.repository.fuga.FugaRepository -->
<g id="edge6" class="edge">
<title>me.irof.pkgd.service.fuga.FugaService&#45;&gt;me.irof.pkgd.repository.fuga.FugaRepository</title>
<path fill="none" stroke="black" d="M142.91,-121.82C139.73,-111.08 135.56,-97.03 131.95,-84.84"/>
<polygon fill="black" stroke="black" points="135.28,-83.75 129.08,-75.15 128.57,-85.74 135.28,-83.75"/>
</g>
<!-- me.irof.pkgd.service.hoge.HogeService&#45;&gt;me.irof.pkgd.repository.hoge.HogeRepository -->
<g id="edge5" class="edge">
<title>me.irof.pkgd.service.hoge.HogeService&#45;&gt;me.irof.pkgd.repository.hoge.HogeRepository</title>
<path fill="none" stroke="black" d="M409.27,-121.82C414.49,-110.98 421.35,-96.74 427.25,-84.47"/>
<polygon fill="black" stroke="black" points="430.56,-85.68 431.74,-75.15 424.25,-82.64 430.56,-85.68"/>
</g>
<!-- me.irof.pkgd.service.piyo.PiyoService&#45;&gt;me.irof.pkgd.repository.piyo.PiyoRepository -->
<g id="edge7" class="edge">
<title>me.irof.pkgd.service.piyo.PiyoService&#45;&gt;me.irof.pkgd.repository.piyo.PiyoRepository</title>
<path fill="none" stroke="black" d="M281,-121.82C281,-111.19 281,-97.31 281,-85.2"/>
<polygon fill="black" stroke="black" points="284.5,-85.15 281,-75.15 277.5,-85.15 284.5,-85.15"/>
</g>
</g>
</svg>
