<?xml version="1.0" encoding="UTF-8" standalone="no"?>
<!DOCTYPE svg PUBLIC "-//W3C//DTD SVG 1.1//EN"
 "http://www.w3.org/Graphics/SVG/1.1/DTD/svg11.dtd">
<!-- Generated by graphviz version 2.49.1 (20210923.0004)
 -->
<!-- Title: パッケージ関連図 Pages: 1 -->
<svg width="319pt" height="267pt"
 viewBox="0.00 0.00 319.00 267.00" xmlns="http://www.w3.org/2000/svg" xmlns:xlink="http://www.w3.org/1999/xlink">
<g id="graph0" class="graph" transform="scale(1 1) rotate(0) translate(4 263)">
<title>パッケージ関連図</title>
<polygon fill="white" stroke="transparent" points="-4,4 -4,-263 315,-263 315,4 -4,4"/>
<text text-anchor="middle" x="155.5" y="-7.8" font-family="Times,serif" font-size="14.00">パッケージ関連図</text>
<g id="clust1" class="cluster">
<title>cluster_me.irof.pkgd</title>
<polygon fill="lemonchiffon" stroke="#eedd82" stroke-width="2" points="123.5,-31 123.5,-251 213.5,-251 213.5,-31 123.5,-31"/>
<text text-anchor="middle" x="168.5" y="-235.8" font-family="Times,serif" font-size="14.00">me.irof.pkgd</text>
</g>
<!-- summary -->
<g id="node1" class="node">
<title>summary</title>
<polygon fill="none" stroke="black" points="109,-221 0,-221 0,-183 115,-183 115,-215 109,-221"/>
<polyline fill="none" stroke="black" points="109,-221 109,-215 "/>
<polyline fill="none" stroke="black" points="115,-215 109,-215 "/>
<text text-anchor="start" x="8" y="-205.8" font-family="Times,serif" font-size="14.00">パッケージ数: 4</text>
<text text-anchor="start" x="8" y="-190.8" font-family="Times,serif" font-size="14.00">関連数: 2</text>
</g>
<!-- me.irof.pkgd.controller -->
<g id="node2" class="node">
<title>me.irof.pkgd.controller</title>
<polygon fill="#eedd82" stroke="black" points="204,-220 133,-220 133,-184 204,-184 204,-220"/>
<text text-anchor="middle" x="168.5" y="-198.3" font-family="Times,serif" font-size="14.00">controller</text>
</g>
<!-- me.irof.pkgd.service -->
<g id="node3" class="node">
<title>me.irof.pkgd.service</title>
<polygon fill="#eedd82" stroke="black" points="196.5,-147 140.5,-147 140.5,-111 196.5,-111 196.5,-147"/>
<text text-anchor="middle" x="168.5" y="-125.3" font-family="Times,serif" font-size="14.00">service</text>
</g>
<!-- me.irof.pkgd.controller&#45;&gt;me.irof.pkgd.service -->
<g id="edge1" class="edge">
<title>me.irof.pkgd.controller&#45;&gt;me.irof.pkgd.service</title>
<path fill="none" stroke="black" d="M168.5,-183.81C168.5,-175.79 168.5,-166.05 168.5,-157.07"/>
<polygon fill="black" stroke="black" points="172,-157.03 168.5,-147.03 165,-157.03 172,-157.03"/>
</g>
<!-- me.irof.pkgd.repository -->
<g id="node4" class="node">
<title>me.irof.pkgd.repository</title>
<polygon fill="#eedd82" stroke="black" points="205,-75 132,-75 132,-39 205,-39 205,-75"/>
<text text-anchor="middle" x="168.5" y="-53.3" font-family="Times,serif" font-size="14.00">repository</text>
</g>
<!-- me.irof.pkgd.service&#45;&gt;me.irof.pkgd.repository -->
<g id="edge2" class="edge">
<title>me.irof.pkgd.service&#45;&gt;me.irof.pkgd.repository</title>
<path fill="none" stroke="black" d="M168.5,-110.7C168.5,-102.98 168.5,-93.71 168.5,-85.11"/>
<polygon fill="black" stroke="black" points="172,-85.1 168.5,-75.1 165,-85.1 172,-85.1"/>
</g>
<!-- me.irof.pkgd -->
<g id="node5" class="node">
<title>me.irof.pkgd</title>
<polygon fill="#eedd82" stroke="black" points="311,-220 222,-220 222,-184 311,-184 311,-220"/>
<text text-anchor="middle" x="266.5" y="-198.3" font-family="Times,serif" font-size="14.00">me.irof.pkgd</text>
</g>
</g>
</svg>
