<?xml version="1.0" encoding="UTF-8" standalone="no"?>
<!DOCTYPE svg PUBLIC "-//W3C//DTD SVG 1.1//EN"
 "http://www.w3.org/Graphics/SVG/1.1/DTD/svg11.dtd">
<!-- Generated by graphviz version 2.49.1 (20210923.0004)
 -->
<!-- Title: パッケージ関連図 Pages: 1 -->
<svg width="377pt" height="288pt"
 viewBox="0.00 0.00 377.00 288.00" xmlns="http://www.w3.org/2000/svg" xmlns:xlink="http://www.w3.org/1999/xlink">
<g id="graph0" class="graph" transform="scale(1 1) rotate(0) translate(4 284)">
<title>パッケージ関連図</title>
<polygon fill="white" stroke="transparent" points="-4,4 -4,-284 373,-284 373,4 -4,4"/>
<text text-anchor="middle" x="184.5" y="-7.8" font-family="Times,serif" font-size="14.00">パッケージ関連図</text>
<g id="clust1" class="cluster">
<title>cluster_me.irof.pkgd.service</title>
<polygon fill="lemonchiffon" stroke="#eedd82" stroke-width="2" points="90.5,-114 90.5,-189 304.5,-189 304.5,-114 90.5,-114"/>
<text text-anchor="middle" x="197.5" y="-173.8" font-family="Times,serif" font-size="14.00">me.irof.pkgd.service</text>
</g>
<g id="clust2" class="cluster">
<title>cluster_me.irof.pkgd.repository</title>
<polygon fill="lemonchiffon" stroke="#eedd82" stroke-width="2" points="90.5,-31 90.5,-106 304.5,-106 304.5,-31 90.5,-31"/>
<text text-anchor="middle" x="197.5" y="-90.8" font-family="Times,serif" font-size="14.00">me.irof.pkgd.repository</text>
</g>
<g id="clust3" class="cluster">
<title>cluster_me.irof.pkgd.controller</title>
<polygon fill="lemonchiffon" stroke="#eedd82" stroke-width="2" points="124.5,-197 124.5,-272 271.5,-272 271.5,-197 124.5,-197"/>
<text text-anchor="middle" x="198" y="-256.8" font-family="Times,serif" font-size="14.00">me.irof.pkgd.controller</text>
</g>
<!-- summary -->
<g id="node1" class="node">
<title>summary</title>
<polygon fill="none" stroke="black" points="109,-242 0,-242 0,-204 115,-204 115,-236 109,-242"/>
<polyline fill="none" stroke="black" points="109,-242 109,-236 "/>
<polyline fill="none" stroke="black" points="115,-236 109,-236 "/>
<text text-anchor="start" x="8" y="-226.8" font-family="Times,serif" font-size="14.00">パッケージ数: 9</text>
<text text-anchor="start" x="8" y="-211.8" font-family="Times,serif" font-size="14.00">関連数: 7</text>
</g>
<!-- me.irof.pkgd.controller.hoge -->
<g id="node2" class="node">
<title>me.irof.pkgd.controller.hoge</title>
<polygon fill="#eedd82" stroke="black" points="188.5,-241 134.5,-241 134.5,-205 188.5,-205 188.5,-241"/>
<text text-anchor="middle" x="161.5" y="-219.3" font-family="Times,serif" font-size="14.00">hoge</text>
</g>
<!-- me.irof.pkgd.service.piyo -->
<g id="node3" class="node">
<title>me.irof.pkgd.service.piyo</title>
<polygon fill="#eedd82" stroke="black" points="224.5,-158 170.5,-158 170.5,-122 224.5,-122 224.5,-158"/>
<text text-anchor="middle" x="197.5" y="-136.3" font-family="Times,serif" font-size="14.00">piyo</text>
</g>
<!-- me.irof.pkgd.controller.hoge&#45;&gt;me.irof.pkgd.service.piyo -->
<g id="edge1" class="edge">
<title>me.irof.pkgd.controller.hoge&#45;&gt;me.irof.pkgd.service.piyo</title>
<path fill="none" stroke="black" d="M169.13,-204.82C173.96,-193.98 180.28,-179.74 185.73,-167.47"/>
<polygon fill="black" stroke="black" points="189.01,-168.71 189.88,-158.15 182.62,-165.87 189.01,-168.71"/>
</g>
<!-- me.irof.pkgd.service.hoge -->
<g id="node7" class="node">
<title>me.irof.pkgd.service.hoge</title>
<polygon fill="#eedd82" stroke="black" points="152.5,-158 98.5,-158 98.5,-122 152.5,-122 152.5,-158"/>
<text text-anchor="middle" x="125.5" y="-136.3" font-family="Times,serif" font-size="14.00">hoge</text>
</g>
<!-- me.irof.pkgd.controller.hoge&#45;&gt;me.irof.pkgd.service.hoge -->
<g id="edge5" class="edge">
<title>me.irof.pkgd.controller.hoge&#45;&gt;me.irof.pkgd.service.hoge</title>
<path fill="none" stroke="black" d="M153.87,-204.82C149.04,-193.98 142.72,-179.74 137.27,-167.47"/>
<polygon fill="black" stroke="black" points="140.38,-165.87 133.12,-158.15 133.99,-168.71 140.38,-165.87"/>
</g>
<!-- me.irof.pkgd.repository.piyo -->
<g id="node9" class="node">
<title>me.irof.pkgd.repository.piyo</title>
<polygon fill="#eedd82" stroke="black" points="224.5,-75 170.5,-75 170.5,-39 224.5,-39 224.5,-75"/>
<text text-anchor="middle" x="197.5" y="-53.3" font-family="Times,serif" font-size="14.00">piyo</text>
</g>
<!-- me.irof.pkgd.service.piyo&#45;&gt;me.irof.pkgd.repository.piyo -->
<g id="edge6" class="edge">
<title>me.irof.pkgd.service.piyo&#45;&gt;me.irof.pkgd.repository.piyo</title>
<path fill="none" stroke="black" d="M197.5,-121.82C197.5,-111.19 197.5,-97.31 197.5,-85.2"/>
<polygon fill="black" stroke="black" points="201,-85.15 197.5,-75.15 194,-85.15 201,-85.15"/>
</g>
<!-- me.irof.pkgd.service.fuga -->
<g id="node4" class="node">
<title>me.irof.pkgd.service.fuga</title>
<polygon fill="#eedd82" stroke="black" points="296.5,-158 242.5,-158 242.5,-122 296.5,-122 296.5,-158"/>
<text text-anchor="middle" x="269.5" y="-136.3" font-family="Times,serif" font-size="14.00">fuga</text>
</g>
<!-- me.irof.pkgd.repository.fuga -->
<g id="node5" class="node">
<title>me.irof.pkgd.repository.fuga</title>
<polygon fill="#eedd82" stroke="black" points="296.5,-75 242.5,-75 242.5,-39 296.5,-39 296.5,-75"/>
<text text-anchor="middle" x="269.5" y="-53.3" font-family="Times,serif" font-size="14.00">fuga</text>
</g>
<!-- me.irof.pkgd.service.fuga&#45;&gt;me.irof.pkgd.repository.fuga -->
<g id="edge2" class="edge">
<title>me.irof.pkgd.service.fuga&#45;&gt;me.irof.pkgd.repository.fuga</title>
<path fill="none" stroke="black" d="M269.5,-121.82C269.5,-111.19 269.5,-97.31 269.5,-85.2"/>
<polygon fill="black" stroke="black" points="273,-85.15 269.5,-75.15 266,-85.15 273,-85.15"/>
</g>
<!-- me.irof.pkgd.controller.fuga -->
<g id="node6" class="node">
<title>me.irof.pkgd.controller.fuga</title>
<polygon fill="#eedd82" stroke="black" points="260.5,-241 206.5,-241 206.5,-205 260.5,-205 260.5,-241"/>
<text text-anchor="middle" x="233.5" y="-219.3" font-family="Times,serif" font-size="14.00">fuga</text>
</g>
<!-- me.irof.pkgd.controller.fuga&#45;&gt;me.irof.pkgd.service.piyo -->
<g id="edge7" class="edge">
<title>me.irof.pkgd.controller.fuga&#45;&gt;me.irof.pkgd.service.piyo</title>
<path fill="none" stroke="black" d="M225.87,-204.82C221.04,-193.98 214.72,-179.74 209.27,-167.47"/>
<polygon fill="black" stroke="black" points="212.38,-165.87 205.12,-158.15 205.99,-168.71 212.38,-165.87"/>
</g>
<!-- me.irof.pkgd.controller.fuga&#45;&gt;me.irof.pkgd.service.fuga -->
<g id="edge3" class="edge">
<title>me.irof.pkgd.controller.fuga&#45;&gt;me.irof.pkgd.service.fuga</title>
<path fill="none" stroke="black" d="M241.13,-204.82C245.96,-193.98 252.28,-179.74 257.73,-167.47"/>
<polygon fill="black" stroke="black" points="261.01,-168.71 261.88,-158.15 254.62,-165.87 261.01,-168.71"/>
</g>
<!-- me.irof.pkgd.repository.hoge -->
<g id="node8" class="node">
<title>me.irof.pkgd.repository.hoge</title>
<polygon fill="#eedd82" stroke="black" points="152.5,-75 98.5,-75 98.5,-39 152.5,-39 152.5,-75"/>
<text text-anchor="middle" x="125.5" y="-53.3" font-family="Times,serif" font-size="14.00">hoge</text>
</g>
<!-- me.irof.pkgd.service.hoge&#45;&gt;me.irof.pkgd.repository.hoge -->
<g id="edge4" class="edge">
<title>me.irof.pkgd.service.hoge&#45;&gt;me.irof.pkgd.repository.hoge</title>
<path fill="none" stroke="black" d="M125.5,-121.82C125.5,-111.19 125.5,-97.31 125.5,-85.2"/>
<polygon fill="black" stroke="black" points="129,-85.15 125.5,-75.15 122,-85.15 129,-85.15"/>
</g>
<!-- me.irof.pkgd -->
<g id="node10" class="node">
<title>me.irof.pkgd</title>
<polygon fill="#eedd82" stroke="black" points="369,-241 280,-241 280,-205 369,-205 369,-241"/>
<text text-anchor="middle" x="324.5" y="-219.3" font-family="Times,serif" font-size="14.00">me.irof.pkgd</text>
</g>
</g>
</svg>
