<?xml version="1.0" encoding="UTF-8" standalone="no"?>
<!DOCTYPE svg PUBLIC "-//W3C//DTD SVG 1.1//EN"
 "http://www.w3.org/Graphics/SVG/1.1/DTD/svg11.dtd">
<!-- Generated by graphviz version 2.49.1 (20210923.0004)
 -->
<!-- Title: ビジネスルール関連図 Pages: 1 -->
<svg width="574pt" height="288pt"
 viewBox="0.00 0.00 574.00 288.00" xmlns="http://www.w3.org/2000/svg" xmlns:xlink="http://www.w3.org/1999/xlink">
<g id="graph0" class="graph" transform="scale(1 1) rotate(0) translate(4 284)">
<title>ビジネスルール関連図</title>
<polygon fill="white" stroke="transparent" points="-4,4 -4,-284 570,-284 570,4 -4,4"/>
<text text-anchor="middle" x="283" y="-7.8" font-family="Times,serif" font-size="14.00">ビジネスルール関連図</text>
<g id="clust1" class="cluster">
<title>cluster_me.irof.pkgd</title>
<polygon fill="lemonchiffon" stroke="#eedd82" stroke-width="2" points="28,-197 28,-272 128,-272 128,-197 28,-197"/>
<text text-anchor="middle" x="78" y="-256.8" font-family="Times,serif" font-size="14.00">me.irof.pkgd</text>
</g>
<g id="clust2" class="cluster">
<title>cluster_me.irof.pkgd.fuga.controller</title>
<polygon fill="lemonchiffon" stroke="#eedd82" stroke-width="2" points="158,-197 158,-272 333,-272 333,-197 158,-197"/>
<text text-anchor="middle" x="245.5" y="-256.8" font-family="Times,serif" font-size="14.00">me.irof.pkgd.fuga.controller</text>
</g>
<g id="clust3" class="cluster">
<title>cluster_me.irof.pkgd.fuga.repository</title>
<polygon fill="lemonchiffon" stroke="#eedd82" stroke-width="2" points="8,-31 8,-106 185,-106 185,-31 8,-31"/>
<text text-anchor="middle" x="96.5" y="-90.8" font-family="Times,serif" font-size="14.00">me.irof.pkgd.fuga.repository</text>
</g>
<g id="clust4" class="cluster">
<title>cluster_me.irof.pkgd.fuga.service</title>
<polygon fill="lemonchiffon" stroke="#eedd82" stroke-width="2" points="24,-114 24,-189 184,-189 184,-114 24,-114"/>
<text text-anchor="middle" x="104" y="-173.8" font-family="Times,serif" font-size="14.00">me.irof.pkgd.fuga.service</text>
</g>
<g id="clust5" class="cluster">
<title>cluster_me.irof.pkgd.hoge.controller</title>
<polygon fill="lemonchiffon" stroke="#eedd82" stroke-width="2" points="352,-197 352,-272 529,-272 529,-197 352,-197"/>
<text text-anchor="middle" x="440.5" y="-256.8" font-family="Times,serif" font-size="14.00">me.irof.pkgd.hoge.controller</text>
</g>
<g id="clust6" class="cluster">
<title>cluster_me.irof.pkgd.hoge.repository</title>
<polygon fill="lemonchiffon" stroke="#eedd82" stroke-width="2" points="378,-31 378,-106 558,-106 558,-31 378,-31"/>
<text text-anchor="middle" x="468" y="-90.8" font-family="Times,serif" font-size="14.00">me.irof.pkgd.hoge.repository</text>
</g>
<g id="clust7" class="cluster">
<title>cluster_me.irof.pkgd.hoge.service</title>
<polygon fill="lemonchiffon" stroke="#eedd82" stroke-width="2" points="378,-114 378,-189 541,-189 541,-114 378,-114"/>
<text text-anchor="middle" x="459.5" y="-173.8" font-family="Times,serif" font-size="14.00">me.irof.pkgd.hoge.service</text>
</g>
<g id="clust8" class="cluster">
<title>cluster_me.irof.pkgd.piyo.repository</title>
<polygon fill="lemonchiffon" stroke="#eedd82" stroke-width="2" points="193,-31 193,-106 370,-106 370,-31 193,-31"/>
<text text-anchor="middle" x="281.5" y="-90.8" font-family="Times,serif" font-size="14.00">me.irof.pkgd.piyo.repository</text>
</g>
<g id="clust9" class="cluster">
<title>cluster_me.irof.pkgd.piyo.service</title>
<polygon fill="lemonchiffon" stroke="#eedd82" stroke-width="2" points="202,-114 202,-189 362,-189 362,-114 202,-114"/>
<text text-anchor="middle" x="282" y="-173.8" font-family="Times,serif" font-size="14.00">me.irof.pkgd.piyo.service</text>
</g>
<!-- me.irof.pkgd.Application -->
<g id="node1" class="node">
<title>me.irof.pkgd.Application</title>
<polygon fill="#eedd82" stroke="red" points="119.5,-241 36.5,-241 36.5,-205 119.5,-205 119.5,-241"/>
<text text-anchor="middle" x="78" y="-219.3" font-family="Times,serif" font-size="14.00">Application</text>
</g>
<!-- me.irof.pkgd.fuga.controller.FugaController -->
<g id="node2" class="node">
<title>me.irof.pkgd.fuga.controller.FugaController</title>
<polygon fill="#eedd82" stroke="black" points="286,-241 184,-241 184,-205 286,-205 286,-241"/>
<text text-anchor="middle" x="235" y="-219.3" font-family="Times,serif" font-size="14.00">FugaController</text>
</g>
<!-- me.irof.pkgd.fuga.service.FugaService -->
<g id="node4" class="node">
<title>me.irof.pkgd.fuga.service.FugaService</title>
<polygon fill="#eedd82" stroke="black" points="171,-158 85,-158 85,-122 171,-122 171,-158"/>
<text text-anchor="middle" x="128" y="-136.3" font-family="Times,serif" font-size="14.00">FugaService</text>
</g>
<!-- me.irof.pkgd.fuga.controller.FugaController&#45;&gt;me.irof.pkgd.fuga.service.FugaService -->
<g id="edge4" class="edge">
<title>me.irof.pkgd.fuga.controller.FugaController&#45;&gt;me.irof.pkgd.fuga.service.FugaService</title>
<path fill="none" stroke="black" d="M212.31,-204.82C196.7,-193.01 175.79,-177.18 158.7,-164.24"/>
<polygon fill="black" stroke="black" points="160.74,-161.4 150.66,-158.15 156.52,-166.98 160.74,-161.4"/>
</g>
<!-- me.irof.pkgd.piyo.service.PiyoService -->
<g id="node9" class="node">
<title>me.irof.pkgd.piyo.service.PiyoService</title>
<polygon fill="#eedd82" stroke="black" points="299,-158 215,-158 215,-122 299,-122 299,-158"/>
<text text-anchor="middle" x="257" y="-136.3" font-family="Times,serif" font-size="14.00">PiyoService</text>
</g>
<!-- me.irof.pkgd.fuga.controller.FugaController&#45;&gt;me.irof.pkgd.piyo.service.PiyoService -->
<g id="edge5" class="edge">
<title>me.irof.pkgd.fuga.controller.FugaController&#45;&gt;me.irof.pkgd.piyo.service.PiyoService</title>
<path fill="none" stroke="black" d="M239.67,-204.82C242.58,-194.08 246.4,-180.03 249.71,-167.84"/>
<polygon fill="black" stroke="black" points="253.1,-168.72 252.34,-158.15 246.34,-166.89 253.1,-168.72"/>
</g>
<!-- me.irof.pkgd.fuga.repository.FugaRepository -->
<g id="node3" class="node">
<title>me.irof.pkgd.fuga.repository.FugaRepository</title>
<polygon fill="#eedd82" stroke="black" points="177,-75 71,-75 71,-39 177,-39 177,-75"/>
<text text-anchor="middle" x="124" y="-53.3" font-family="Times,serif" font-size="14.00">FugaRepository</text>
</g>
<!-- me.irof.pkgd.fuga.service.FugaService&#45;&gt;me.irof.pkgd.fuga.repository.FugaRepository -->
<g id="edge6" class="edge">
<title>me.irof.pkgd.fuga.service.FugaService&#45;&gt;me.irof.pkgd.fuga.repository.FugaRepository</title>
<path fill="none" stroke="black" d="M127.15,-121.82C126.63,-111.19 125.94,-97.31 125.34,-85.2"/>
<polygon fill="black" stroke="black" points="128.84,-84.97 124.85,-75.15 121.84,-85.31 128.84,-84.97"/>
</g>
<!-- me.irof.pkgd.hoge.controller.HogeController -->
<g id="node5" class="node">
<title>me.irof.pkgd.hoge.controller.HogeController</title>
<polygon fill="#eedd82" stroke="black" points="470,-241 366,-241 366,-205 470,-205 470,-241"/>
<text text-anchor="middle" x="418" y="-219.3" font-family="Times,serif" font-size="14.00">HogeController</text>
</g>
<!-- me.irof.pkgd.hoge.service.HogeService -->
<g id="node7" class="node">
<title>me.irof.pkgd.hoge.service.HogeService</title>
<polygon fill="#eedd82" stroke="black" points="479.5,-158 390.5,-158 390.5,-122 479.5,-122 479.5,-158"/>
<text text-anchor="middle" x="435" y="-136.3" font-family="Times,serif" font-size="14.00">HogeService</text>
</g>
<!-- me.irof.pkgd.hoge.controller.HogeController&#45;&gt;me.irof.pkgd.hoge.service.HogeService -->
<g id="edge1" class="edge">
<title>me.irof.pkgd.hoge.controller.HogeController&#45;&gt;me.irof.pkgd.hoge.service.HogeService</title>
<path fill="none" stroke="black" d="M421.61,-204.82C423.84,-194.19 426.75,-180.31 429.29,-168.2"/>
<polygon fill="black" stroke="black" points="432.77,-168.66 431.4,-158.15 425.92,-167.22 432.77,-168.66"/>
</g>
<!-- me.irof.pkgd.hoge.controller.HogeController&#45;&gt;me.irof.pkgd.piyo.service.PiyoService -->
<g id="edge2" class="edge">
<title>me.irof.pkgd.hoge.controller.HogeController&#45;&gt;me.irof.pkgd.piyo.service.PiyoService</title>
<path fill="none" stroke="black" d="M383.86,-204.82C359.33,-192.48 326.1,-175.77 299.81,-162.54"/>
<polygon fill="black" stroke="black" points="301.32,-159.38 290.82,-158.01 298.18,-165.64 301.32,-159.38"/>
</g>
<!-- me.irof.pkgd.hoge.repository.HogeRepository -->
<g id="node6" class="node">
<title>me.irof.pkgd.hoge.repository.HogeRepository</title>
<polygon fill="#eedd82" stroke="black" points="494,-75 386,-75 386,-39 494,-39 494,-75"/>
<text text-anchor="middle" x="440" y="-53.3" font-family="Times,serif" font-size="14.00">HogeRepository</text>
</g>
<!-- me.irof.pkgd.hoge.service.HogeService&#45;&gt;me.irof.pkgd.hoge.repository.HogeRepository -->
<g id="edge3" class="edge">
<title>me.irof.pkgd.hoge.service.HogeService&#45;&gt;me.irof.pkgd.hoge.repository.HogeRepository</title>
<path fill="none" stroke="black" d="M436.06,-121.82C436.72,-111.19 437.57,-97.31 438.32,-85.2"/>
<polygon fill="black" stroke="black" points="441.82,-85.35 438.94,-75.15 434.83,-84.92 441.82,-85.35"/>
</g>
<!-- me.irof.pkgd.piyo.repository.PiyoRepository -->
<g id="node8" class="node">
<title>me.irof.pkgd.piyo.repository.PiyoRepository</title>
<polygon fill="#eedd82" stroke="black" points="309,-75 205,-75 205,-39 309,-39 309,-75"/>
<text text-anchor="middle" x="257" y="-53.3" font-family="Times,serif" font-size="14.00">PiyoRepository</text>
</g>
<!-- me.irof.pkgd.piyo.service.PiyoService&#45;&gt;me.irof.pkgd.piyo.repository.PiyoRepository -->
<g id="edge7" class="edge">
<title>me.irof.pkgd.piyo.service.PiyoService&#45;&gt;me.irof.pkgd.piyo.repository.PiyoRepository</title>
<path fill="none" stroke="black" d="M257,-121.82C257,-111.19 257,-97.31 257,-85.2"/>
<polygon fill="black" stroke="black" points="260.5,-85.15 257,-75.15 253.5,-85.15 260.5,-85.15"/>
</g>
</g>
</svg>
