<?xml version="1.0" encoding="UTF-8" standalone="no"?>
<!DOCTYPE svg PUBLIC "-//W3C//DTD SVG 1.1//EN"
 "http://www.w3.org/Graphics/SVG/1.1/DTD/svg11.dtd">
<!-- Generated by graphviz version 2.49.1 (20210923.0004)
 -->
<!-- Title: パッケージ関連図 Pages: 1 -->
<svg width="599pt" height="270pt"
 viewBox="0.00 0.00 599.00 270.00" xmlns="http://www.w3.org/2000/svg" xmlns:xlink="http://www.w3.org/1999/xlink">
<g id="graph0" class="graph" transform="scale(1 1) rotate(0) translate(4 266)">
<title>パッケージ関連図</title>
<polygon fill="white" stroke="transparent" points="-4,4 -4,-266 595,-266 595,4 -4,4"/>
<text text-anchor="middle" x="295.5" y="-7.8" font-family="Times,serif" font-size="14.00">パッケージ関連図</text>
<g id="clust1" class="cluster">
<title>cluster_me.irof.pkgd.hoge</title>
<polygon fill="lemonchiffon" stroke="#eedd82" stroke-width="2" points="373.5,-31 373.5,-254 493.5,-254 493.5,-31 373.5,-31"/>
<text text-anchor="middle" x="433.5" y="-238.8" font-family="Times,serif" font-size="14.00">me.irof.pkgd.hoge</text>
</g>
<g id="clust2" class="cluster">
<title>cluster_me.irof.pkgd.fuga</title>
<polygon fill="lemonchiffon" stroke="#eedd82" stroke-width="2" points="123.5,-31 123.5,-254 240.5,-254 240.5,-31 123.5,-31"/>
<text text-anchor="middle" x="182" y="-238.8" font-family="Times,serif" font-size="14.00">me.irof.pkgd.fuga</text>
</g>
<g id="clust3" class="cluster">
<title>cluster_me.irof.pkgd.piyo</title>
<polygon fill="lemonchiffon" stroke="#eedd82" stroke-width="2" points="248.5,-31 248.5,-178 365.5,-178 365.5,-31 248.5,-31"/>
<text text-anchor="middle" x="307" y="-162.8" font-family="Times,serif" font-size="14.00">me.irof.pkgd.piyo</text>
</g>
<!-- summary -->
<g id="node1" class="node">
<title>summary</title>
<polygon fill="none" stroke="black" points="109,-224 0,-224 0,-186 115,-186 115,-218 109,-224"/>
<polyline fill="none" stroke="black" points="109,-224 109,-218 "/>
<polyline fill="none" stroke="black" points="115,-218 109,-218 "/>
<text text-anchor="start" x="8" y="-208.8" font-family="Times,serif" font-size="14.00">パッケージ数: 9</text>
<text text-anchor="start" x="8" y="-193.8" font-family="Times,serif" font-size="14.00">関連数: 7</text>
</g>
<!-- me.irof.pkgd.fuga.service -->
<g id="node2" class="node">
<title>me.irof.pkgd.fuga.service</title>
<polygon fill="#eedd82" stroke="black" points="223.5,-147 167.5,-147 167.5,-111 223.5,-111 223.5,-147"/>
<text text-anchor="middle" x="195.5" y="-125.3" font-family="Times,serif" font-size="14.00">service</text>
</g>
<!-- me.irof.pkgd.fuga.repository -->
<g id="node3" class="node">
<title>me.irof.pkgd.fuga.repository</title>
<polygon fill="#eedd82" stroke="black" points="232,-75 159,-75 159,-39 232,-39 232,-75"/>
<text text-anchor="middle" x="195.5" y="-53.3" font-family="Times,serif" font-size="14.00">repository</text>
</g>
<!-- me.irof.pkgd.fuga.service&#45;&gt;me.irof.pkgd.fuga.repository -->
<g id="edge1" class="edge">
<title>me.irof.pkgd.fuga.service&#45;&gt;me.irof.pkgd.fuga.repository</title>
<path fill="none" stroke="black" d="M195.5,-110.7C195.5,-102.98 195.5,-93.71 195.5,-85.11"/>
<polygon fill="black" stroke="black" points="199,-85.1 195.5,-75.1 192,-85.1 199,-85.1"/>
</g>
<!-- me.irof.pkgd.fuga.controller -->
<g id="node4" class="node">
<title>me.irof.pkgd.fuga.controller</title>
<polygon fill="#eedd82" stroke="black" points="231,-223 160,-223 160,-187 231,-187 231,-223"/>
<text text-anchor="middle" x="195.5" y="-201.3" font-family="Times,serif" font-size="14.00">controller</text>
</g>
<!-- me.irof.pkgd.fuga.controller&#45;&gt;me.irof.pkgd.fuga.service -->
<g id="edge2" class="edge">
<title>me.irof.pkgd.fuga.controller&#45;&gt;me.irof.pkgd.fuga.service</title>
<path fill="none" stroke="black" d="M195.5,-186.84C195.5,-178.06 195.5,-167.16 195.5,-157.27"/>
<polygon fill="black" stroke="black" points="199,-157.07 195.5,-147.07 192,-157.07 199,-157.07"/>
</g>
<!-- me.irof.pkgd.piyo.service -->
<g id="node6" class="node">
<title>me.irof.pkgd.piyo.service</title>
<polygon fill="#eedd82" stroke="black" points="334.5,-147 278.5,-147 278.5,-111 334.5,-111 334.5,-147"/>
<text text-anchor="middle" x="306.5" y="-125.3" font-family="Times,serif" font-size="14.00">service</text>
</g>
<!-- me.irof.pkgd.fuga.controller&#45;&gt;me.irof.pkgd.piyo.service -->
<g id="edge6" class="edge">
<title>me.irof.pkgd.fuga.controller&#45;&gt;me.irof.pkgd.piyo.service</title>
<path fill="none" stroke="black" d="M229.41,-186.98C234.55,-184.12 239.73,-181.08 244.5,-178 255.96,-170.6 267.95,-161.64 278.3,-153.47"/>
<polygon fill="black" stroke="black" points="280.59,-156.12 286.2,-147.14 276.21,-150.66 280.59,-156.12"/>
</g>
<!-- me.irof.pkgd.hoge.controller -->
<g id="node5" class="node">
<title>me.irof.pkgd.hoge.controller</title>
<polygon fill="#eedd82" stroke="black" points="453,-223 382,-223 382,-187 453,-187 453,-223"/>
<text text-anchor="middle" x="417.5" y="-201.3" font-family="Times,serif" font-size="14.00">controller</text>
</g>
<!-- me.irof.pkgd.hoge.controller&#45;&gt;me.irof.pkgd.piyo.service -->
<g id="edge3" class="edge">
<title>me.irof.pkgd.hoge.controller&#45;&gt;me.irof.pkgd.piyo.service</title>
<path fill="none" stroke="black" d="M384.32,-186.9C379.28,-184.05 374.2,-181.04 369.5,-178 357.93,-170.52 345.76,-161.54 335.24,-153.38"/>
<polygon fill="black" stroke="black" points="337.22,-150.49 327.2,-147.06 332.9,-155.99 337.22,-150.49"/>
</g>
<!-- me.irof.pkgd.hoge.service -->
<g id="node7" class="node">
<title>me.irof.pkgd.hoge.service</title>
<polygon fill="#eedd82" stroke="black" points="445.5,-147 389.5,-147 389.5,-111 445.5,-111 445.5,-147"/>
<text text-anchor="middle" x="417.5" y="-125.3" font-family="Times,serif" font-size="14.00">service</text>
</g>
<!-- me.irof.pkgd.hoge.controller&#45;&gt;me.irof.pkgd.hoge.service -->
<g id="edge4" class="edge">
<title>me.irof.pkgd.hoge.controller&#45;&gt;me.irof.pkgd.hoge.service</title>
<path fill="none" stroke="black" d="M417.5,-186.84C417.5,-178.06 417.5,-167.16 417.5,-157.27"/>
<polygon fill="black" stroke="black" points="421,-157.07 417.5,-147.07 414,-157.07 421,-157.07"/>
</g>
<!-- me.irof.pkgd.piyo.repository -->
<g id="node8" class="node">
<title>me.irof.pkgd.piyo.repository</title>
<polygon fill="#eedd82" stroke="black" points="343,-75 270,-75 270,-39 343,-39 343,-75"/>
<text text-anchor="middle" x="306.5" y="-53.3" font-family="Times,serif" font-size="14.00">repository</text>
</g>
<!-- me.irof.pkgd.piyo.service&#45;&gt;me.irof.pkgd.piyo.repository -->
<g id="edge5" class="edge">
<title>me.irof.pkgd.piyo.service&#45;&gt;me.irof.pkgd.piyo.repository</title>
<path fill="none" stroke="black" d="M306.5,-110.7C306.5,-102.98 306.5,-93.71 306.5,-85.11"/>
<polygon fill="black" stroke="black" points="310,-85.1 306.5,-75.1 303,-85.1 310,-85.1"/>
</g>
<!-- me.irof.pkgd.hoge.repository -->
<g id="node9" class="node">
<title>me.irof.pkgd.hoge.repository</title>
<polygon fill="#eedd82" stroke="black" points="455,-75 382,-75 382,-39 455,-39 455,-75"/>
<text text-anchor="middle" x="418.5" y="-53.3" font-family="Times,serif" font-size="14.00">repository</text>
</g>
<!-- me.irof.pkgd.hoge.service&#45;&gt;me.irof.pkgd.hoge.repository -->
<g id="edge7" class="edge">
<title>me.irof.pkgd.hoge.service&#45;&gt;me.irof.pkgd.hoge.repository</title>
<path fill="none" stroke="black" d="M417.75,-110.7C417.86,-102.98 417.99,-93.71 418.11,-85.11"/>
<polygon fill="black" stroke="black" points="421.61,-85.15 418.26,-75.1 414.61,-85.05 421.61,-85.15"/>
</g>
<!-- me.irof.pkgd -->
<g id="node10" class="node">
<title>me.irof.pkgd</title>
<polygon fill="#eedd82" stroke="black" points="591,-223 502,-223 502,-187 591,-187 591,-223"/>
<text text-anchor="middle" x="546.5" y="-201.3" font-family="Times,serif" font-size="14.00">me.irof.pkgd</text>
</g>
</g>
</svg>
