<?xml version="1.0" encoding="UTF-8" standalone="no"?>
<!DOCTYPE svg PUBLIC "-//W3C//DTD SVG 1.1//EN"
 "http://www.w3.org/Graphics/SVG/1.1/DTD/svg11.dtd">
<!-- Generated by graphviz version 2.49.1 (20210923.0004)
 -->
<!-- Title: パッケージ関連図 Pages: 1 -->
<svg width="375pt" height="195pt"
 viewBox="0.00 0.00 375.00 195.00" xmlns="http://www.w3.org/2000/svg" xmlns:xlink="http://www.w3.org/1999/xlink">
<g id="graph0" class="graph" transform="scale(1 1) rotate(0) translate(4 191)">
<title>パッケージ関連図</title>
<polygon fill="white" stroke="transparent" points="-4,4 -4,-191 371,-191 371,4 -4,4"/>
<text text-anchor="middle" x="183.5" y="-7.8" font-family="Times,serif" font-size="14.00">パッケージ関連図</text>
<g id="clust1" class="cluster">
<title>cluster_me.irof.pkgd</title>
<polygon fill="lemonchiffon" stroke="#eedd82" stroke-width="2" points="125.5,-31 125.5,-179 267.5,-179 267.5,-31 125.5,-31"/>
<text text-anchor="middle" x="196.5" y="-163.8" font-family="Times,serif" font-size="14.00">me.irof.pkgd</text>
</g>
<!-- summary -->
<g id="node1" class="node">
<title>summary</title>
<polygon fill="none" stroke="black" points="109,-149 0,-149 0,-111 115,-111 115,-143 109,-149"/>
<polyline fill="none" stroke="black" points="109,-149 109,-143 "/>
<polyline fill="none" stroke="black" points="115,-143 109,-143 "/>
<text text-anchor="start" x="8" y="-133.8" font-family="Times,serif" font-size="14.00">パッケージ数: 4</text>
<text text-anchor="start" x="8" y="-118.8" font-family="Times,serif" font-size="14.00">関連数: 2</text>
</g>
<!-- me.irof.pkgd.hoge -->
<g id="node2" class="node">
<title>me.irof.pkgd.hoge</title>
<polygon fill="#eedd82" stroke="black" points="259.5,-148 205.5,-148 205.5,-112 259.5,-112 259.5,-148"/>
<text text-anchor="middle" x="232.5" y="-126.3" font-family="Times,serif" font-size="14.00">hoge</text>
</g>
<!-- me.irof.pkgd.piyo -->
<g id="node3" class="node">
<title>me.irof.pkgd.piyo</title>
<polygon fill="#eedd82" stroke="black" points="223.5,-75 169.5,-75 169.5,-39 223.5,-39 223.5,-75"/>
<text text-anchor="middle" x="196.5" y="-53.3" font-family="Times,serif" font-size="14.00">piyo</text>
</g>
<!-- me.irof.pkgd.hoge&#45;&gt;me.irof.pkgd.piyo -->
<g id="edge1" class="edge">
<title>me.irof.pkgd.hoge&#45;&gt;me.irof.pkgd.piyo</title>
<path fill="none" stroke="black" d="M223.79,-111.81C219.58,-103.53 214.45,-93.41 209.78,-84.19"/>
<polygon fill="black" stroke="black" points="212.78,-82.37 205.13,-75.03 206.54,-85.53 212.78,-82.37"/>
</g>
<!-- me.irof.pkgd.fuga -->
<g id="node4" class="node">
<title>me.irof.pkgd.fuga</title>
<polygon fill="#eedd82" stroke="black" points="187.5,-148 133.5,-148 133.5,-112 187.5,-112 187.5,-148"/>
<text text-anchor="middle" x="160.5" y="-126.3" font-family="Times,serif" font-size="14.00">fuga</text>
</g>
<!-- me.irof.pkgd.fuga&#45;&gt;me.irof.pkgd.piyo -->
<g id="edge2" class="edge">
<title>me.irof.pkgd.fuga&#45;&gt;me.irof.pkgd.piyo</title>
<path fill="none" stroke="black" d="M169.21,-111.81C173.42,-103.53 178.55,-93.41 183.22,-84.19"/>
<polygon fill="black" stroke="black" points="186.46,-85.53 187.87,-75.03 180.22,-82.37 186.46,-85.53"/>
</g>
<!-- me.irof.pkgd -->
<g id="node5" class="node">
<title>me.irof.pkgd</title>
<polygon fill="#eedd82" stroke="black" points="367,-148 278,-148 278,-112 367,-112 367,-148"/>
<text text-anchor="middle" x="322.5" y="-126.3" font-family="Times,serif" font-size="14.00">me.irof.pkgd</text>
</g>
</g>
</svg>
