<?xml version="1.0" encoding="UTF-8" standalone="no"?>
<!DOCTYPE svg PUBLIC "-//W3C//DTD SVG 1.1//EN"
 "http://www.w3.org/Graphics/SVG/1.1/DTD/svg11.dtd">
<!-- Generated by graphviz version 2.49.1 (20210923.0004)
 -->
<!-- Title: ビジネスルール関連図 Pages: 1 -->
<svg width="514pt" height="277pt"
 viewBox="0.00 0.00 514.00 277.00" xmlns="http://www.w3.org/2000/svg" xmlns:xlink="http://www.w3.org/1999/xlink">
<g id="graph0" class="graph" transform="scale(1 1) rotate(0) translate(4 273)">
<title>ビジネスルール関連図</title>
<polygon fill="white" stroke="transparent" points="-4,4 -4,-273 510,-273 510,4 -4,4"/>
<text text-anchor="middle" x="253" y="-7.8" font-family="Times,serif" font-size="14.00">ビジネスルール関連図</text>
<g id="clust1" class="cluster">
<title>cluster_me.irof.pkgd</title>
<polygon fill="lemonchiffon" stroke="#eedd82" stroke-width="2" points="8,-186 8,-261 108,-261 108,-186 8,-186"/>
<text text-anchor="middle" x="58" y="-245.8" font-family="Times,serif" font-size="14.00">me.irof.pkgd</text>
</g>
<g id="clust2" class="cluster">
<title>cluster_me.irof.pkgd.fuga</title>
<polygon fill="lemonchiffon" stroke="#eedd82" stroke-width="2" points="116,-31 116,-261 238,-261 238,-31 116,-31"/>
<text text-anchor="middle" x="177" y="-245.8" font-family="Times,serif" font-size="14.00">me.irof.pkgd.fuga</text>
</g>
<g id="clust3" class="cluster">
<title>cluster_me.irof.pkgd.hoge</title>
<polygon fill="lemonchiffon" stroke="#eedd82" stroke-width="2" points="374,-31 374,-261 498,-261 498,-31 374,-31"/>
<text text-anchor="middle" x="436" y="-245.8" font-family="Times,serif" font-size="14.00">me.irof.pkgd.hoge</text>
</g>
<g id="clust4" class="cluster">
<title>cluster_me.irof.pkgd.piyo</title>
<polygon fill="lemonchiffon" stroke="#eedd82" stroke-width="2" points="246,-31 246,-178 366,-178 366,-31 246,-31"/>
<text text-anchor="middle" x="306" y="-162.8" font-family="Times,serif" font-size="14.00">me.irof.pkgd.piyo</text>
</g>
<!-- me.irof.pkgd.Application -->
<g id="node1" class="node">
<title>me.irof.pkgd.Application</title>
<polygon fill="#eedd82" stroke="red" points="99.5,-230 16.5,-230 16.5,-194 99.5,-194 99.5,-230"/>
<text text-anchor="middle" x="58" y="-208.3" font-family="Times,serif" font-size="14.00">Application</text>
</g>
<!-- me.irof.pkgd.fuga.FugaController -->
<g id="node2" class="node">
<title>me.irof.pkgd.fuga.FugaController</title>
<polygon fill="#eedd82" stroke="black" points="229,-230 127,-230 127,-194 229,-194 229,-230"/>
<text text-anchor="middle" x="178" y="-208.3" font-family="Times,serif" font-size="14.00">FugaController</text>
</g>
<!-- me.irof.pkgd.fuga.FugaService -->
<g id="node4" class="node">
<title>me.irof.pkgd.fuga.FugaService</title>
<polygon fill="#eedd82" stroke="black" points="220,-147 134,-147 134,-111 220,-111 220,-147"/>
<text text-anchor="middle" x="177" y="-125.3" font-family="Times,serif" font-size="14.00">FugaService</text>
</g>
<!-- me.irof.pkgd.fuga.FugaController&#45;&gt;me.irof.pkgd.fuga.FugaService -->
<g id="edge5" class="edge">
<title>me.irof.pkgd.fuga.FugaController&#45;&gt;me.irof.pkgd.fuga.FugaService</title>
<path fill="none" stroke="black" d="M177.79,-193.82C177.66,-183.19 177.49,-169.31 177.34,-157.2"/>
<polygon fill="black" stroke="black" points="180.84,-157.11 177.21,-147.15 173.84,-157.2 180.84,-157.11"/>
</g>
<!-- me.irof.pkgd.piyo.PiyoService -->
<g id="node9" class="node">
<title>me.irof.pkgd.piyo.PiyoService</title>
<polygon fill="#eedd82" stroke="black" points="348,-147 264,-147 264,-111 348,-111 348,-147"/>
<text text-anchor="middle" x="306" y="-125.3" font-family="Times,serif" font-size="14.00">PiyoService</text>
</g>
<!-- me.irof.pkgd.fuga.FugaController&#45;&gt;me.irof.pkgd.piyo.PiyoService -->
<g id="edge6" class="edge">
<title>me.irof.pkgd.fuga.FugaController&#45;&gt;me.irof.pkgd.piyo.PiyoService</title>
<path fill="none" stroke="black" d="M213.8,-193.88C223.15,-189.05 233.1,-183.58 242,-178 253.79,-170.61 266.16,-161.65 276.85,-153.48"/>
<polygon fill="black" stroke="black" points="279.26,-156.04 285.01,-147.15 274.96,-150.51 279.26,-156.04"/>
</g>
<!-- me.irof.pkgd.fuga.FugaRepository -->
<g id="node3" class="node">
<title>me.irof.pkgd.fuga.FugaRepository</title>
<polygon fill="#eedd82" stroke="black" points="230,-75 124,-75 124,-39 230,-39 230,-75"/>
<text text-anchor="middle" x="177" y="-53.3" font-family="Times,serif" font-size="14.00">FugaRepository</text>
</g>
<!-- me.irof.pkgd.fuga.FugaService&#45;&gt;me.irof.pkgd.fuga.FugaRepository -->
<g id="edge4" class="edge">
<title>me.irof.pkgd.fuga.FugaService&#45;&gt;me.irof.pkgd.fuga.FugaRepository</title>
<path fill="none" stroke="black" d="M177,-110.7C177,-102.98 177,-93.71 177,-85.11"/>
<polygon fill="black" stroke="black" points="180.5,-85.1 177,-75.1 173.5,-85.1 180.5,-85.1"/>
</g>
<!-- me.irof.pkgd.hoge.HogeController -->
<g id="node5" class="node">
<title>me.irof.pkgd.hoge.HogeController</title>
<polygon fill="#eedd82" stroke="black" points="487,-230 383,-230 383,-194 487,-194 487,-230"/>
<text text-anchor="middle" x="435" y="-208.3" font-family="Times,serif" font-size="14.00">HogeController</text>
</g>
<!-- me.irof.pkgd.hoge.HogeService -->
<g id="node7" class="node">
<title>me.irof.pkgd.hoge.HogeService</title>
<polygon fill="#eedd82" stroke="black" points="479.5,-147 390.5,-147 390.5,-111 479.5,-111 479.5,-147"/>
<text text-anchor="middle" x="435" y="-125.3" font-family="Times,serif" font-size="14.00">HogeService</text>
</g>
<!-- me.irof.pkgd.hoge.HogeController&#45;&gt;me.irof.pkgd.hoge.HogeService -->
<g id="edge1" class="edge">
<title>me.irof.pkgd.hoge.HogeController&#45;&gt;me.irof.pkgd.hoge.HogeService</title>
<path fill="none" stroke="black" d="M435,-193.82C435,-183.19 435,-169.31 435,-157.2"/>
<polygon fill="black" stroke="black" points="438.5,-157.15 435,-147.15 431.5,-157.15 438.5,-157.15"/>
</g>
<!-- me.irof.pkgd.hoge.HogeController&#45;&gt;me.irof.pkgd.piyo.PiyoService -->
<g id="edge2" class="edge">
<title>me.irof.pkgd.hoge.HogeController&#45;&gt;me.irof.pkgd.piyo.PiyoService</title>
<path fill="none" stroke="black" d="M398.63,-193.93C389.13,-189.1 379.03,-183.62 370,-178 358.18,-170.65 345.81,-161.69 335.13,-153.52"/>
<polygon fill="black" stroke="black" points="337.01,-150.55 326.97,-147.18 332.72,-156.08 337.01,-150.55"/>
</g>
<!-- me.irof.pkgd.hoge.HogeRepository -->
<g id="node6" class="node">
<title>me.irof.pkgd.hoge.HogeRepository</title>
<polygon fill="#eedd82" stroke="black" points="490,-75 382,-75 382,-39 490,-39 490,-75"/>
<text text-anchor="middle" x="436" y="-53.3" font-family="Times,serif" font-size="14.00">HogeRepository</text>
</g>
<!-- me.irof.pkgd.hoge.HogeService&#45;&gt;me.irof.pkgd.hoge.HogeRepository -->
<g id="edge3" class="edge">
<title>me.irof.pkgd.hoge.HogeService&#45;&gt;me.irof.pkgd.hoge.HogeRepository</title>
<path fill="none" stroke="black" d="M435.25,-110.7C435.36,-102.98 435.49,-93.71 435.61,-85.11"/>
<polygon fill="black" stroke="black" points="439.11,-85.15 435.76,-75.1 432.11,-85.05 439.11,-85.15"/>
</g>
<!-- me.irof.pkgd.piyo.PiyoRepository -->
<g id="node8" class="node">
<title>me.irof.pkgd.piyo.PiyoRepository</title>
<polygon fill="#eedd82" stroke="black" points="358,-75 254,-75 254,-39 358,-39 358,-75"/>
<text text-anchor="middle" x="306" y="-53.3" font-family="Times,serif" font-size="14.00">PiyoRepository</text>
</g>
<!-- me.irof.pkgd.piyo.PiyoService&#45;&gt;me.irof.pkgd.piyo.PiyoRepository -->
<g id="edge7" class="edge">
<title>me.irof.pkgd.piyo.PiyoService&#45;&gt;me.irof.pkgd.piyo.PiyoRepository</title>
<path fill="none" stroke="black" d="M306,-110.7C306,-102.98 306,-93.71 306,-85.11"/>
<polygon fill="black" stroke="black" points="309.5,-85.1 306,-75.1 302.5,-85.1 309.5,-85.1"/>
</g>
</g>
</svg>
